<?xml version="1.0" encoding="UTF-8"?>
<svg width="6px" height="11px" viewBox="0 0 6 11" version="1.1" xmlns="http://www.w3.org/2000/svg" xmlns:xlink="http://www.w3.org/1999/xlink">
    <title>Group 4</title>
    <g id="Page-1" stroke="none" stroke-width="1" fill="none" fill-rule="evenodd">
        <g id="z" transform="translate(-1424.000000, -758.000000)" stroke="#0042EC">
            <g id="Group-7" transform="translate(1418.000000, 755.000000)">
                <g id="Group-4" transform="translate(6.500000, 4.000000)">
                    <polyline id="Path-7" stroke-width="1.5525" points="0.625 3.88888889 2.5 3.88888889 2.5 8.88888889"></polyline>
                    <path d="M1.8919673,0.235866125 C1.72506741,0.384221588 1.625,0.590084246 1.625,0.815555556 C1.625,1.04102687 1.72506741,1.24688952 1.8919673,1.39524499 C2.04757644,1.53356422 2.26202678,1.62111111 2.5,1.62111111 C2.73797322,1.62111111 2.95242356,1.53356422 3.1080327,1.39524499 C3.27493259,1.24688952 3.375,1.04102687 3.375,0.815555556 C3.375,0.590084246 3.27493259,0.384221588 3.1080327,0.235866125 C2.96734579,0.110811094 2.80244416,-0.0329991175 1.8919673,0.235866125 Z" id="Oval" stroke-width="0.5" fill="#0042EC"></path>
                    <line x1="0.625" y1="8.88888889" x2="4.375" y2="8.88888889" id="Path-9" stroke-width="1.5525" fill="#0042EC"></line>
                </g>
            </g>
        </g>
    </g>
</svg>